<?xml version="1.0" encoding="iso-8859-1"?>
<!-- Generator: Adobe Illustrator 19.0.0, SVG Export Plug-In . SVG Version: 6.00 Build 0)  -->
<svg version="1.1" id="Layer_1" xmlns="http://www.w3.org/2000/svg" xmlns:xlink="http://www.w3.org/1999/xlink" x="0px" y="0px"
	 viewBox="0 0 512 512" style="enable-background:new 0 0 512 512;" xml:space="preserve">
<path style="fill:#A86B38;" d="M391.033,321.599c-2.443-22.517-25.931-35.582-25.931-35.582
	C322.75,173.434,180.219,184.304,159.857,183.527s-26.877-20.964-26.877-20.964c-1.629-74.538-28.507-82.684-28.507-82.684
	L71.081,40.281l4.669,35.218c-15.233,3.797-45.053,28.635-58.423,33.883c-13.845,5.435-7.38,36.152-7.38,36.152
	s8.194-0.829,36.701-0.053c10.725,0.293,18.681,0.296,24.435,0.188h-0.002c0,0-5.312,108.412,50.497,130.253v25.818
	c-4.072,35.52-5.701,44.061,6.515,54.155h25.248l-12.217-32.61l11.371-33.387c30.103,43.481,57.068,41.653,57.068,41.653
	c1.185,3.277,2.532,6.487,4.048,9.591c21.99,45.033,31.764,79.781,25.249,89.875c-6.515,10.094-40.723-0.776-69.229,3.106
	s-38.291,28.143-38.291,28.143h149.872l-13.845-95.502c68.414,41.151,83.075-18.635,83.075-18.635s2.165,90.769,67.6,114.137
	c59.827,21.364,85.519,0,85.519,0C363.24,447.897,393.476,344.115,391.033,321.599z"/>
<g>
	<path style="fill:#8C4A14;" d="M9.88,145.195c0.043,0.221,0.068,0.34,0.068,0.34s1.455-0.146,5.245-0.259
		C13.309,145.241,11.536,145.214,9.88,145.195z"/>
	<path style="fill:#8C4A14;" d="M391.033,321.599c-2.443-22.517-25.931-35.582-25.931-35.582
		C322.75,173.434,180.219,184.304,159.857,183.527s-26.877-20.964-26.877-20.964c-1.629-74.538-28.507-82.684-28.507-82.684
		L71.081,40.281l4.198,31.666l6.689,7.932c0,0,26.877,8.147,28.507,82.684c0,0,6.515,20.187,26.877,20.964
		s162.893-10.094,205.245,102.489c0,0,23.488,13.067,25.931,35.582c2.443,22.517-27.793,126.299,112.527,140.668
		c0,0-8.104,6.736-25.803,8.86c33.43,3.477,48.308-8.86,48.308-8.86C363.24,447.897,393.476,344.115,391.033,321.599z"/>
	<path style="fill:#8C4A14;" d="M266.553,242.536c0,0-75.047-31.962-97.009,67.946c22.53,22.247,40.019,21.07,40.02,21.07
		C193.551,287.281,208.161,230.245,266.553,242.536z"/>
</g>
<path d="M244.256,249.78c6.1-0.91,13.016-0.573,20.558,1.013c0.586,0.124,1.17,0.183,1.746,0.183
	c3.907-0.001,7.413-2.729,8.251-6.704c0.96-4.561-1.96-9.036-6.521-9.996c-9.514-2.002-18.442-2.404-26.536-1.189
	c-4.609,0.691-7.786,4.988-7.095,9.596C235.351,247.295,239.642,250.471,244.256,249.78z"/>
<path d="M511.633,459.806c-0.99-3.251-3.834-5.589-7.213-5.935c-48.79-4.997-81.033-21.775-95.836-49.869
	c-12.367-23.472-10.635-50.124-9.489-67.761c0.422-6.489,0.755-11.614,0.327-15.551c-2.363-21.782-20.432-35.704-27.466-40.348
	c-17.84-45.043-52.973-76.134-104.473-92.444c-41.427-13.12-82.717-12.879-100.353-12.78c-3.057,0.019-5.473,0.03-6.952-0.024
	c-14.006-0.536-18.949-14.485-19.185-15.174c-1.453-4.403-6.187-6.816-10.607-5.388c-4.436,1.431-6.871,6.189-5.44,10.624
	c0.34,1.054,8.627,25.815,34.586,26.804c1.851,0.073,4.429,0.056,7.693,0.037c16.842-0.097,56.266-0.324,95.159,11.991
	c47.336,14.991,79.236,43.589,94.815,84.999c0.698,1.853,2.048,3.416,3.773,4.39c0.197,0.113,19.736,11.343,21.667,29.133
	c0.269,2.482-0.036,7.188-0.39,12.636c-1.193,18.341-3.188,49.038,11.399,76.724c12.916,24.513,36.115,41.69,69.185,51.314
	c-11.131-0.434-25.043-2.824-41.957-8.865c-15.372-5.489-28.283-15.702-38.371-30.357c-22.251-32.321-23.618-75.607-23.63-76.031
	c-0.101-4.23-3.318-7.732-7.525-8.189c-4.207-0.473-8.102,2.272-9.109,6.38c-0.044,0.179-4.803,18.034-19.957,24.342
	c-12.708,5.289-29.722,1.61-50.571-10.93c-2.793-1.681-6.305-1.602-9.022,0.204c-2.715,1.805-4.148,5.012-3.68,8.239l12.447,85.851
	H147.446c5.006-4.93,12.545-9.872,23.326-11.341c11.431-1.559,24.323-0.517,35.695,0.403c18.467,1.494,33.052,2.671,39.486-7.294
	c4.741-7.344,4.454-19.639-0.9-38.696c-4.593-16.347-12.843-36.909-23.855-59.46c-14.119-28.914-12.017-63.697,4.786-79.187
	c3.426-3.16,3.644-8.499,0.485-11.927c-3.159-3.426-8.498-3.643-11.926-0.485c-19.165,17.668-22.728,47.556-16.978,74.254
	c-8.763-3.806-21.646-12.362-35.685-31.568l7.598-22.307c0.812-2.384,0.516-5.009-0.807-7.152l-24.433-39.597
	c-2.447-3.967-7.645-5.197-11.614-2.75c-3.967,2.447-5.198,7.647-2.75,11.614l22.345,36.212l-19.079,56.018
	c-0.629,1.848-0.599,3.855,0.086,5.682l7.947,21.21h-9.873c-5.36-5.289-5.239-10.914-1.876-40.035l0.544-4.717
	c4.371-38.125-9.693-60.011-10.294-60.925c-2.562-3.892-7.797-4.971-11.689-2.41c-3.893,2.561-4.973,7.796-2.41,11.689
	c0.018,0.027,1.333,2.13,2.91,6.099c-14.029-14.282-21.137-36.999-24.729-55.825c-3.673-19.252-4.324-37.545-4.356-47.497
	c3.739-0.199,5.498-0.421,5.892-0.476c4.599-0.645,7.794-4.884,7.17-9.487c-0.623-4.604-4.872-7.836-9.475-7.234
	c-0.089,0.012-9.138,1.141-36.104,0.408c-14.55-0.397-23.963-0.379-29.755-0.257c-1.012-10.19,0.619-18.503,3.287-19.551
	c6.725-2.64,15.416-8.616,24.617-14.943c7.741-5.324,16.877-11.602,23.784-14.934l0.421,3.171c0.613,4.62,4.853,7.881,9.476,7.257
	c4.62-0.612,7.87-4.854,7.257-9.475l-2.721-20.523l14.777,17.524c1.176,1.394,2.086,2.194,3.811,2.594
	c1.694,0.856,16.159,9.354,21.126,51.139c0.511,4.291,4.155,7.444,8.37,7.444c0.333,0,0.668-0.02,1.007-0.061
	c4.628-0.549,7.934-4.749,7.385-9.377c-5.557-46.734-22.965-60.401-30.025-64.078L77.533,34.839
	c-2.417-2.867-6.435-3.794-9.864-2.278c-3.429,1.516-5.447,5.111-4.955,8.828l3.8,28.66c-9.335,3.408-20.342,10.973-31.052,18.337
	c-8.012,5.509-16.296,11.207-21.219,13.14c-6.356,2.495-13.985,9.353-14.237,27.855c-0.125,9.189,1.609,17.541,1.682,17.891
	c0.884,4.197,4.812,7.068,9.076,6.662c0.081-0.008,8.487-0.756,35.653-0.017c6.235,0.17,11.546,0.244,16.067,0.255
	c0.042,26.639,4.304,104.256,51.211,127.468c0.371,5.615,0.314,12.011-0.503,19.138l-0.541,4.704
	c-3.729,32.285-5.126,44.367,10.067,56.919c1.512,1.249,3.413,1.933,5.375,1.933h25.249c2.768,0,5.36-1.357,6.936-3.632
	c1.577-2.273,1.939-5.177,0.968-7.768l-11.159-29.785l5.311-15.595c20.301,23.935,38.774,30.27,48.199,31.893
	c0.769,1.842,1.577,3.648,2.432,5.4c24.736,50.658,28.122,76.196,25.903,81.277c-3.245,1.628-15.75,0.617-24.107-0.059
	c-12.227-0.986-26.085-2.107-39.333-0.305c-32.983,4.492-44.506,32.173-44.979,33.349c-1.049,2.602-0.737,5.554,0.832,7.879
	c1.569,2.324,4.191,3.718,6.995,3.718h149.873c2.45,0,4.779-1.065,6.381-2.917c1.604-1.852,2.323-4.31,1.97-6.734l-11.469-79.111
	c19.357,8.678,36.355,10.063,50.679,4.102c6.835-2.845,12.213-7.04,16.405-11.569c3.281,16.968,9.94,39.467,23.426,59.057
	c12.141,17.634,27.819,29.976,46.598,36.682c20.782,7.421,37.861,9.945,51.481,9.945c28.083,0,41.464-10.732,42.272-11.405
	C511.569,466.582,512.623,463.055,511.633,459.806z"/>
<path d="M49.368,108.922c0,5.344,4.355,9.691,9.708,9.691s9.708-4.347,9.708-9.691s-4.355-9.692-9.708-9.692
	S49.368,103.578,49.368,108.922z"/>
<g>
</g>
<g>
</g>
<g>
</g>
<g>
</g>
<g>
</g>
<g>
</g>
<g>
</g>
<g>
</g>
<g>
</g>
<g>
</g>
<g>
</g>
<g>
</g>
<g>
</g>
<g>
</g>
<g>
</g>
</svg>
