<svg height="511pt" viewBox="1 -62 511.99998 511" width="511pt" xmlns="http://www.w3.org/2000/svg"><path d="m358.953125 387.066406c-13.804687 0-25-11.191406-25-25v-23.621094l50.003906-33.703124v57.324218c0 13.808594-11.195312 25-25.003906 25zm0 0" fill="#afacb3"/><path d="m146.753906 387.066406c-13.808594 0-25.003906-11.191406-25.003906-25v-23.621094l50.003906-34.398437v58.019531c.003906 13.808594-11.191406 25-25 25zm0 0" fill="#afacb3"/><path d="m441.019531 147.027344-3.542969 11.867187-51.753906 173.613281-1.765625 5.933594h-50.007812v23.625c0 3.960938-.917969 7.710938-2.570313 11.035156-1.210937 2.476563-2.832031 4.722657-4.753906 6.644532-4.523438 4.523437-10.773438 7.324218-17.667969 7.324218-13.816406 0-25.007812-11.203124-25.007812-25.003906v-23.625h-162.199219v23.625c0 2.089844-.257812 4.128906-.742188 6.070313-2.714843 10.878906-12.546874 18.933593-24.261718 18.933593-13.800782 0-24.992188-11.203124-24.992188-25.003906v-23.625h-47.835937l11.933593-55.308594h-35.851562c0-30.4375 37.105469-71.75 37.105469-71.75h-37.105469c0-41.304687 54.5-76.039062 54.5-76.039062l-34.929688-8.746094c19.5-41.378906 80.644532-58.765625 80.644532-58.765625l-37.164063-12.976562c15.222657-39.140625 103.359375-20.5625 103.359375-20.5625l-27.261718-27.273438c39.132812-21.136719 93.476562 21.140625 93.476562 21.140625v-27.660156c58.703125 0 85.816406 41.585938 85.816406 41.585938v-31.734376c48.851563 9.84375 69.570313 69.570313 69.570313 69.570313l22.894531-22.894531c28.265625 28.253906 30.113281 90 30.113281 90zm0 0" fill="#7c4242"/><path d="m437.886719 165.175781-49.882813 167.332031h-314.757812l10.429687-48.359374h-31.335937c0-26.605469 32.433594-62.714844 32.433594-62.714844h-32.433594c0-36.113282 47.636718-66.476563 47.636718-66.476563l-30.53125-7.648437c17.050782-36.175782 70.496094-51.378906 70.496094-51.378906l-32.484375-11.347657c13.300781-34.210937 90.363281-17.972656 90.363281-17.972656l-23.835937-23.832031c34.210937-18.484375 81.722656 18.472656 81.722656 18.472656v-24.179688c51.316407 0 75.011719 36.351563 75.011719 36.351563v-27.742187c42.707031 8.613281 60.824219 60.824218 60.824219 60.824218l20.011719-20.019531c19.558593 19.5625 24.648437 57.460937 25.921874 72.410156.335938 3.941407.410157 6.28125.410157 6.28125zm0 0" fill="#936a60"/><path d="m511.996094 218.003906c-39.195313 0-70.972656-31.777344-70.972656-70.972656l-61.367188.945312c-24.105469.273438-45.339844 9.484376-61.21875 24.460938-5.308594-3.550781-11.6875-5.621094-18.554688-5.621094-18.464843 0-33.433593 14.96875-33.433593 33.4375 0 14.777344 9.589843 27.304688 22.882812 31.726563-.398437 3.683593-.609375 7.429687-.609375 11.226562 0 52.597657 42.636719 95.238281 95.234375 95.238281h7.601563c66.515625 0 120.4375-53.921874 120.4375-120.441406zm0 0" fill="#e6e6e6"/><path d="m383.957031 304.742188v33.695312h-50.007812v23.625c0 6.898438-2.800781 13.15625-7.324219 17.679688-4.523438 4.527343-10.773438 7.324218-17.667969 7.324218-13.816406 0-25.007812-11.199218-25.007812-25.003906v-23.625h-162.199219v23.625c0 13.804688-11.1875 25.003906-25.003906 25.003906-13.800782 0-24.992188-11.199218-24.992188-25.003906v-23.625c10.09375-94.46875 229.65625-47.707031 229.65625-47.707031zm0 0" fill="#c4becc"/><path d="m509.464844 242.730469c-1.328125 6.34375-3.148438 12.507812-5.425782 18.445312h-.007812c-17.359375 45.191407-61.171875 77.269531-112.472656 77.269531h-7.597656c-26.300782 0-50.113282-10.65625-67.34375-27.886718-17.230469-17.242188-27.890626-41.046875-27.890626-67.34375v-.160156c.042969 13.398437 10.691407 25.527343 27.890626 34.304687 17.230468 8.800781 41.042968 14.242187 67.34375 14.242187h7.597656c51.300781 0 95.113281-16.371093 112.472656-39.453124h.007812c2.277344-3.03125 4.097657-6.175782 5.425782-9.417969zm0 0" fill="#c4becc"/><g fill="#4f5263"><path d="m512 218.007812c0 15.210938-2.820312 29.765626-7.960938 43.164063h-.011718c-20.4375-3.753906-35.914063-21.652344-35.914063-43.164063 0-4.734374.753907-9.289062 2.144531-13.566406 11.710938 8.539063 26.140626 13.566406 41.742188 13.566406zm0 0"/><path d="m409.601562 237.871094c0 7.5-6.082031 13.582031-13.585937 13.582031-7.5 0-13.582031-6.082031-13.582031-13.582031 0-7.503906 6.082031-13.585938 13.582031-13.585938 7.503906 0 13.585937 6.082032 13.585937 13.585938zm0 0"/></g></svg>